<svg xmlns="http://www.w3.org/2000/svg" width="785" height="180"><defs><clipPath><path d="M0 144h628v-144h-628v144z"/></clipPath><clipPath><path d="M18.081 107.621h61.85v-71.895h-61.85v71.895z"/></clipPath><clipPath><path d="M73.287 107.629h52.459v-71.922h-52.459v71.922z"/></clipPath><clipPath><path d="M26.275 107.984h13.834v-13.89h-13.834v13.89z"/></clipPath><clipPath><path d="M0 144h628v-144h-628v144z"/></clipPath><clipPath><path d="M18.081 107.621h61.85v-71.895h-61.85v71.895z"/></clipPath><clipPath><path d="M73.287 107.629h52.459v-71.922h-52.459v71.922z"/></clipPath><clipPath><path d="M26.275 107.984h13.834v-13.89h-13.834v13.89z"/></clipPath><clipPath><path d="M0 144h628v-144h-628v144z"/></clipPath><clipPath><path d="M18.081 107.621h61.85v-71.895h-61.85v71.895z"/></clipPath><clipPath><path d="M73.287 107.629h52.459v-71.922h-52.459v71.922z"/></clipPath><clipPath><path d="M26.275 107.984h13.834v-13.89h-13.834v13.89z"/></clipPath><clipPath><path d="M0 144h628v-144h-628v144z"/></clipPath><clipPath><path d="M589.116 179.984h70.811v-216h-70.811v216z"/></clipPath><clipPath><path d="M143.939 143.984h445v-6h-445v6z"/></clipPath><clipPath><path d="M143.939 5.984h445v-6h-445v6z"/></clipPath></defs><g><path style="-inkscape-font-specification:Lato-Bold" d="M224.424 45.019h14.125c1.458 0 2.667.354 3.625 1.063 1 .667 1.667 1.583 2 2.75l15.375 54.062c.375 1.333.708 2.792 1 4.375.333 1.542.646 3.188.938 4.938.333-1.75.687-3.396 1.063-4.938.417-1.583.854-3.042 1.313-4.375l17.75-54.062c.333-.958.979-1.833 1.938-2.625 1-.792 2.208-1.187 3.625-1.188h4.938c1.458 0 2.667.354 3.625 1.063.958.667 1.625 1.583 2 2.75l17.625 54.062c.917 2.667 1.708 5.625 2.375 8.875.292-1.625.583-3.187.875-4.688.333-1.5.667-2.896 1-4.188l15.375-54.062c.292-1.042.937-1.937 1.938-2.688 1-.75 2.208-1.125 3.625-1.125h13.188l-28.063 90.375h-15.188l-19.75-61.75-.813-2.563c-.25-.917-.5-1.896-.75-2.938-.25 1.042-.521 2.021-.813 2.938-.25.917-.5 1.771-.75 2.563l-19.938 61.75h-15.188l-28.063-90.375" font-size="100" font-weight="bold" fill="#164881" font-family="Lato"/><path style="-inkscape-font-specification:Lato-Bold" d="M394.987 135.394h-16.875v-90.375h16.875v90.375" font-size="100" font-weight="bold" fill="#164881" font-family="Lato"/><path style="-inkscape-font-specification:Lato-Bold" d="M473.174 97.894c.708 1.333 1.354 2.729 1.938 4.188.625 1.417 1.229 2.854 1.813 4.313.583-1.5 1.187-2.979 1.813-4.438.625-1.458 1.292-2.854 2-4.188l26.75-50.062c.333-.625.667-1.125 1-1.5.375-.375.771-.646 1.188-.813.458-.167.958-.271 1.5-.313.542-.042 1.187-.062 1.938-.063h12.688v90.375h-14.813v-58.375c0-1.083.021-2.271.063-3.563.083-1.292.187-2.604.313-3.938l-27.313 51.25c-.625 1.167-1.438 2.083-2.438 2.75-1 .625-2.167.938-3.5.938h-2.313c-1.333 0-2.5-.312-3.5-.938-1-.667-1.813-1.583-2.438-2.75l-27.688-51.438c.167 1.375.271 2.729.313 4.063.083 1.292.125 2.5.125 3.625v58.375h-14.813v-90.375h12.688c.75 0 1.396.021 1.938.063.542.042 1.021.146 1.438.313.458.167.875.438 1.25.813.375.375.729.875 1.063 1.5l27 50.187" font-size="100" font-weight="bold" fill="#164881" font-family="Lato"/><path style="-inkscape-font-specification:Lato-Bold" d="M636.799 90.207c0 6.625-1.104 12.708-3.313 18.25-2.208 5.542-5.313 10.313-9.313 14.313-4 4-8.813 7.104-14.438 9.313-5.625 2.208-11.854 3.313-18.688 3.313h-34.5v-90.375h34.5c6.833 0 13.062 1.125 18.688 3.375 5.625 2.208 10.437 5.313 14.438 9.312 4 3.958 7.104 8.708 9.313 14.25 2.208 5.542 3.312 11.625 3.313 18.25m-17.188 0c0-4.958-.667-9.396-2-13.313-1.333-3.958-3.229-7.292-5.688-10-2.458-2.75-5.458-4.854-9-6.313-3.5-1.458-7.458-2.187-11.875-2.188h-17.563v63.625h17.563c4.417 0 8.375-.729 11.875-2.188 3.542-1.458 6.542-3.542 9-6.25 2.458-2.75 4.354-6.083 5.688-10 1.333-3.958 2-8.417 2-13.375" font-size="100" font-weight="bold" fill="#164881" font-family="Lato"/><path style="-inkscape-font-specification:Lato-Bold" d="M698.799 121.832c3.25 0 6.146-.542 8.688-1.625 2.583-1.083 4.75-2.604 6.5-4.563 1.792-1.958 3.146-4.333 4.063-7.125.958-2.792 1.437-5.917 1.438-9.375v-54.125h16.813v54.125c0 5.375-.875 10.354-2.625 14.938-1.708 4.542-4.188 8.479-7.438 11.813-3.25 3.292-7.188 5.875-11.813 7.75-4.625 1.833-9.833 2.75-15.625 2.75s-11-.917-15.625-2.75c-4.625-1.875-8.563-4.458-11.813-7.75-3.208-3.333-5.688-7.271-7.438-11.813-1.708-4.583-2.563-9.562-2.563-14.938v-54.125h16.813v54.062c0 3.458.458 6.583 1.375 9.375.958 2.792 2.312 5.188 4.063 7.188 1.75 1.958 3.896 3.479 6.438 4.563 2.583 1.083 5.5 1.625 8.75 1.625" font-size="100" font-weight="bold" fill="#164881" font-family="Lato"/><path d="M-.076 180.019h180v-180h-180z" fill="#164881"/><path d="M154.981 55.753l-5.002-10.289-30.069 61.506-18.176-37.672-10.124 20.45 18.317 37.718s2.785 7.282 9.534 7.871c6.883.596 10.512-7.92 10.512-7.92l25.02-51.186s1.904-3.975 2.17-10.22c.255-6.063-2.183-10.258-2.183-10.258" opacity=".8" fill="#fff"/><path d="M32.844 45.019l8.61 17.364 8.682-17.364h-17.293z" fill="#fff" opacity=".8"/><path d="M60.383 135.313c-6.884.605-10.52-7.909-10.52-7.909l-25.063-51.159s-1.907-3.971-2.179-10.215c-.26-6.063 2.176-10.26 2.176-10.26l4.991-10.296 30.119 61.471 9.992-20.448 5.833-12.082s2.288-4.786 5.016-6.74c2.774-1.988 6.629-1.698 6.629-1.698l12.536.009-30.006 61.443s-2.776 7.287-9.525 7.884" fill="#fff"/></g></svg>